<mxfile host="app.diagrams.net" agent="Mozilla/5.0 (Windows NT 10.0; Win64; x64) AppleWebKit/537.36 (KHTML, like Gecko) Chrome/136.0.0.0 Safari/537.36" version="27.0.6">
  <diagram name="Page-1" id="pqlstkjJxeQk3nz_0XsI">
    <mxGraphModel dx="1678" dy="874" grid="1" gridSize="10" guides="1" tooltips="1" connect="1" arrows="1" fold="1" page="1" pageScale="1" pageWidth="850" pageHeight="1100" math="0" shadow="0">
      <root>
        <mxCell id="0" />
        <mxCell id="1" parent="0" />
        <mxCell id="HgQRzAoZeHZbi4-Zrx-5-39" value="" style="rounded=1;whiteSpace=wrap;html=1;" vertex="1" parent="1">
          <mxGeometry x="90" y="35" width="620" height="655" as="geometry" />
        </mxCell>
        <mxCell id="HgQRzAoZeHZbi4-Zrx-5-10" style="edgeStyle=orthogonalEdgeStyle;rounded=0;orthogonalLoop=1;jettySize=auto;html=1;exitX=0.31;exitY=0.8;exitDx=0;exitDy=0;exitPerimeter=0;entryX=0.25;entryY=0;entryDx=0;entryDy=0;" edge="1" parent="1" source="HgQRzAoZeHZbi4-Zrx-5-1" target="HgQRzAoZeHZbi4-Zrx-5-3">
          <mxGeometry relative="1" as="geometry" />
        </mxCell>
        <mxCell id="HgQRzAoZeHZbi4-Zrx-5-1" value="" style="ellipse;shape=cloud;whiteSpace=wrap;html=1;fillColor=#f5f5f5;strokeColor=#666666;fontColor=#333333;" vertex="1" parent="1">
          <mxGeometry x="130" y="50" width="160" height="120" as="geometry" />
        </mxCell>
        <mxCell id="HgQRzAoZeHZbi4-Zrx-5-2" value="Online Job Postings" style="text;html=1;align=center;verticalAlign=middle;whiteSpace=wrap;rounded=0;" vertex="1" parent="1">
          <mxGeometry x="190" y="95" width="60" height="30" as="geometry" />
        </mxCell>
        <mxCell id="HgQRzAoZeHZbi4-Zrx-5-3" value="Scout:&lt;div&gt;Looks for URLs to process&lt;/div&gt;" style="rounded=1;whiteSpace=wrap;html=1;fillColor=#e1d5e7;strokeColor=#9673a6;" vertex="1" parent="1">
          <mxGeometry x="170" y="220" width="100" height="70" as="geometry" />
        </mxCell>
        <mxCell id="HgQRzAoZeHZbi4-Zrx-5-4" value="Short-Term Database: Holds onto records for 1 month" style="rounded=0;whiteSpace=wrap;html=1;fillColor=#dae8fc;strokeColor=#6c8ebf;" vertex="1" parent="1">
          <mxGeometry x="380" y="180" width="120" height="60" as="geometry" />
        </mxCell>
        <mxCell id="HgQRzAoZeHZbi4-Zrx-5-6" value="Queue of URLs to process further" style="rounded=0;whiteSpace=wrap;html=1;fillColor=#f8cecc;strokeColor=#b85450;" vertex="1" parent="1">
          <mxGeometry x="380" y="270" width="120" height="60" as="geometry" />
        </mxCell>
        <mxCell id="HgQRzAoZeHZbi4-Zrx-5-7" value="" style="endArrow=classic;html=1;rounded=0;entryX=-0.023;entryY=0.44;entryDx=0;entryDy=0;entryPerimeter=0;exitX=1;exitY=0.5;exitDx=0;exitDy=0;" edge="1" parent="1" source="HgQRzAoZeHZbi4-Zrx-5-3" target="HgQRzAoZeHZbi4-Zrx-5-6">
          <mxGeometry width="50" height="50" relative="1" as="geometry">
            <mxPoint x="280" y="350" as="sourcePoint" />
            <mxPoint x="310" y="380" as="targetPoint" />
          </mxGeometry>
        </mxCell>
        <mxCell id="HgQRzAoZeHZbi4-Zrx-5-8" value="" style="endArrow=classic;startArrow=classic;html=1;rounded=0;exitX=1;exitY=0.5;exitDx=0;exitDy=0;" edge="1" parent="1" source="HgQRzAoZeHZbi4-Zrx-5-3">
          <mxGeometry width="50" height="50" relative="1" as="geometry">
            <mxPoint x="330" y="260" as="sourcePoint" />
            <mxPoint x="380" y="210" as="targetPoint" />
          </mxGeometry>
        </mxCell>
        <mxCell id="HgQRzAoZeHZbi4-Zrx-5-9" style="edgeStyle=orthogonalEdgeStyle;rounded=0;orthogonalLoop=1;jettySize=auto;html=1;exitX=0.75;exitY=0;exitDx=0;exitDy=0;entryX=0.8;entryY=0.8;entryDx=0;entryDy=0;entryPerimeter=0;" edge="1" parent="1" source="HgQRzAoZeHZbi4-Zrx-5-3" target="HgQRzAoZeHZbi4-Zrx-5-1">
          <mxGeometry relative="1" as="geometry" />
        </mxCell>
        <mxCell id="HgQRzAoZeHZbi4-Zrx-5-19" value="SQL Database:&lt;div&gt;Contains a data-store of parsed-through data&lt;/div&gt;&lt;div&gt;on the queued-up URLs&lt;/div&gt;" style="shape=cylinder3;whiteSpace=wrap;html=1;boundedLbl=1;backgroundOutline=1;size=15;fillColor=#dae8fc;strokeColor=#6c8ebf;" vertex="1" parent="1">
          <mxGeometry x="530" y="260.5" width="140" height="100" as="geometry" />
        </mxCell>
        <mxCell id="HgQRzAoZeHZbi4-Zrx-5-21" value="Surveyor:&lt;div&gt;Processes query requests, generates responses&lt;/div&gt;" style="rounded=1;whiteSpace=wrap;html=1;fillColor=#e1d5e7;strokeColor=#9673a6;" vertex="1" parent="1">
          <mxGeometry x="540" y="171.5" width="120" height="60" as="geometry" />
        </mxCell>
        <mxCell id="HgQRzAoZeHZbi4-Zrx-5-22" value="Front-End Site:&lt;div&gt;Displays aggregates of collected data in a user-friendly way&lt;/div&gt;" style="rounded=1;whiteSpace=wrap;html=1;fillColor=#d5e8d4;strokeColor=#82b366;" vertex="1" parent="1">
          <mxGeometry x="540" y="81.5" width="120" height="60" as="geometry" />
        </mxCell>
        <mxCell id="HgQRzAoZeHZbi4-Zrx-5-23" value="" style="endArrow=classic;startArrow=classic;html=1;rounded=0;exitX=0.5;exitY=0;exitDx=0;exitDy=0;entryX=0.5;entryY=1;entryDx=0;entryDy=0;" edge="1" parent="1" source="HgQRzAoZeHZbi4-Zrx-5-21" target="HgQRzAoZeHZbi4-Zrx-5-22">
          <mxGeometry width="50" height="50" relative="1" as="geometry">
            <mxPoint x="550" y="200.5" as="sourcePoint" />
            <mxPoint x="600" y="150.5" as="targetPoint" />
          </mxGeometry>
        </mxCell>
        <mxCell id="HgQRzAoZeHZbi4-Zrx-5-24" value="" style="endArrow=classic;startArrow=classic;html=1;rounded=0;exitX=0.5;exitY=0;exitDx=0;exitDy=0;exitPerimeter=0;entryX=0.5;entryY=1;entryDx=0;entryDy=0;" edge="1" parent="1" source="HgQRzAoZeHZbi4-Zrx-5-19" target="HgQRzAoZeHZbi4-Zrx-5-21">
          <mxGeometry width="50" height="50" relative="1" as="geometry">
            <mxPoint x="550" y="290.5" as="sourcePoint" />
            <mxPoint x="600" y="240.5" as="targetPoint" />
          </mxGeometry>
        </mxCell>
        <mxCell id="HgQRzAoZeHZbi4-Zrx-5-16" value="" style="rounded=0;whiteSpace=wrap;html=1;fillColor=#f5f5f5;fontColor=#333333;strokeColor=#666666;" vertex="1" parent="1">
          <mxGeometry x="150" y="420" width="460" height="180" as="geometry" />
        </mxCell>
        <mxCell id="HgQRzAoZeHZbi4-Zrx-5-25" style="edgeStyle=orthogonalEdgeStyle;rounded=0;orthogonalLoop=1;jettySize=auto;html=1;exitX=0.5;exitY=1;exitDx=0;exitDy=0;entryX=0;entryY=0.5;entryDx=0;entryDy=0;" edge="1" parent="1" source="HgQRzAoZeHZbi4-Zrx-5-11" target="HgQRzAoZeHZbi4-Zrx-5-12">
          <mxGeometry relative="1" as="geometry" />
        </mxCell>
        <mxCell id="HgQRzAoZeHZbi4-Zrx-5-11" value="Manager Container:&lt;div&gt;Scales up/down Worker nodes&lt;/div&gt;" style="rounded=1;whiteSpace=wrap;html=1;fillColor=#ffe6cc;strokeColor=#d79b00;" vertex="1" parent="1">
          <mxGeometry x="170" y="450" width="120" height="60" as="geometry" />
        </mxCell>
        <mxCell id="HgQRzAoZeHZbi4-Zrx-5-28" style="edgeStyle=orthogonalEdgeStyle;rounded=0;orthogonalLoop=1;jettySize=auto;html=1;exitX=0.5;exitY=0;exitDx=0;exitDy=0;entryX=0;entryY=0.5;entryDx=0;entryDy=0;" edge="1" parent="1" source="HgQRzAoZeHZbi4-Zrx-5-12" target="HgQRzAoZeHZbi4-Zrx-5-13">
          <mxGeometry relative="1" as="geometry" />
        </mxCell>
        <mxCell id="HgQRzAoZeHZbi4-Zrx-5-12" value="Kafka Container:&lt;div&gt;Provides messaging&lt;/div&gt;&lt;div&gt;to Worker nodes&lt;/div&gt;" style="rounded=1;whiteSpace=wrap;html=1;fillColor=#ffe6cc;strokeColor=#d79b00;" vertex="1" parent="1">
          <mxGeometry x="310" y="500" width="120" height="60" as="geometry" />
        </mxCell>
        <mxCell id="HgQRzAoZeHZbi4-Zrx-5-37" style="edgeStyle=orthogonalEdgeStyle;rounded=0;orthogonalLoop=1;jettySize=auto;html=1;exitX=1;exitY=0.5;exitDx=0;exitDy=0;" edge="1" parent="1" source="HgQRzAoZeHZbi4-Zrx-5-14">
          <mxGeometry relative="1" as="geometry">
            <mxPoint x="600" y="360" as="targetPoint" />
            <Array as="points">
              <mxPoint x="600" y="500" />
            </Array>
          </mxGeometry>
        </mxCell>
        <mxCell id="HgQRzAoZeHZbi4-Zrx-5-14" value="" style="rounded=1;whiteSpace=wrap;html=1;fillColor=#ffe6cc;strokeColor=#d79b00;" vertex="1" parent="1">
          <mxGeometry x="470" y="470" width="120" height="60" as="geometry" />
        </mxCell>
        <mxCell id="HgQRzAoZeHZbi4-Zrx-5-35" style="edgeStyle=orthogonalEdgeStyle;rounded=0;orthogonalLoop=1;jettySize=auto;html=1;exitX=1;exitY=0.5;exitDx=0;exitDy=0;" edge="1" parent="1" source="HgQRzAoZeHZbi4-Zrx-5-15">
          <mxGeometry relative="1" as="geometry">
            <mxPoint x="600" y="360" as="targetPoint" />
          </mxGeometry>
        </mxCell>
        <mxCell id="HgQRzAoZeHZbi4-Zrx-5-15" value="" style="rounded=1;whiteSpace=wrap;html=1;fillColor=#ffe6cc;strokeColor=#d79b00;" vertex="1" parent="1">
          <mxGeometry x="460" y="460" width="120" height="60" as="geometry" />
        </mxCell>
        <mxCell id="HgQRzAoZeHZbi4-Zrx-5-13" value="Worker Container(s):&lt;div&gt;Process URLs, push data into SQL tables&lt;/div&gt;" style="rounded=1;whiteSpace=wrap;html=1;fillColor=#ffe6cc;strokeColor=#d79b00;" vertex="1" parent="1">
          <mxGeometry x="450" y="450" width="120" height="60" as="geometry" />
        </mxCell>
        <mxCell id="HgQRzAoZeHZbi4-Zrx-5-17" value="Kubernetes Containers" style="text;html=1;align=center;verticalAlign=middle;whiteSpace=wrap;rounded=0;fontStyle=0" vertex="1" parent="1">
          <mxGeometry x="140" y="570" width="160" height="30" as="geometry" />
        </mxCell>
        <mxCell id="HgQRzAoZeHZbi4-Zrx-5-29" value="" style="endArrow=classic;startArrow=classic;html=1;rounded=0;entryX=0.5;entryY=1;entryDx=0;entryDy=0;exitX=0.5;exitY=0;exitDx=0;exitDy=0;" edge="1" parent="1" source="HgQRzAoZeHZbi4-Zrx-5-13" target="HgQRzAoZeHZbi4-Zrx-5-6">
          <mxGeometry width="50" height="50" relative="1" as="geometry">
            <mxPoint x="40" y="450" as="sourcePoint" />
            <mxPoint x="90" y="400" as="targetPoint" />
          </mxGeometry>
        </mxCell>
        <mxCell id="HgQRzAoZeHZbi4-Zrx-5-30" value="" style="endArrow=classic;startArrow=classic;html=1;rounded=0;entryX=0.5;entryY=1;entryDx=0;entryDy=0;exitX=0.5;exitY=0;exitDx=0;exitDy=0;" edge="1" parent="1" source="HgQRzAoZeHZbi4-Zrx-5-11" target="HgQRzAoZeHZbi4-Zrx-5-6">
          <mxGeometry width="50" height="50" relative="1" as="geometry">
            <mxPoint x="70" y="440" as="sourcePoint" />
            <mxPoint x="120" y="390" as="targetPoint" />
          </mxGeometry>
        </mxCell>
        <mxCell id="HgQRzAoZeHZbi4-Zrx-5-34" style="edgeStyle=orthogonalEdgeStyle;rounded=0;orthogonalLoop=1;jettySize=auto;html=1;exitX=1;exitY=0.5;exitDx=0;exitDy=0;entryX=0.5;entryY=1;entryDx=0;entryDy=0;entryPerimeter=0;" edge="1" parent="1" source="HgQRzAoZeHZbi4-Zrx-5-13" target="HgQRzAoZeHZbi4-Zrx-5-19">
          <mxGeometry relative="1" as="geometry" />
        </mxCell>
        <mxCell id="HgQRzAoZeHZbi4-Zrx-5-40" value="&lt;font style=&quot;font-size: 14px;&quot;&gt;&lt;i style=&quot;&quot;&gt;ModernSkills&lt;/i&gt;™ System Design&lt;/font&gt;" style="text;html=1;align=left;verticalAlign=middle;whiteSpace=wrap;rounded=0;" vertex="1" parent="1">
          <mxGeometry x="160" y="650" width="200" height="30" as="geometry" />
        </mxCell>
        <mxCell id="HgQRzAoZeHZbi4-Zrx-5-41" value="Designed by Max W" style="text;html=1;align=center;verticalAlign=middle;whiteSpace=wrap;rounded=0;fontSize=14;" vertex="1" parent="1">
          <mxGeometry x="500" y="650" width="130" height="30" as="geometry" />
        </mxCell>
      </root>
    </mxGraphModel>
  </diagram>
</mxfile>
